<svg id="visual" viewBox="0 0 960 540" width="960" height="540" xmlns="http://www.w3.org/2000/svg" xmlns:xlink="http://www.w3.org/1999/xlink" version="1.1"><rect x="0" y="0" width="960" height="540" fill="#F7CACA"></rect><path d="M0 126L26.7 117.2C53.3 108.3 106.7 90.7 160 77.5C213.3 64.3 266.7 55.7 320 53.5C373.3 51.3 426.7 55.7 480 64C533.3 72.3 586.7 84.7 640 92.3C693.3 100 746.7 103 800 99C853.3 95 906.7 84 933.3 78.5L960 73L960 0L933.3 0C906.7 0 853.3 0 800 0C746.7 0 693.3 0 640 0C586.7 0 533.3 0 480 0C426.7 0 373.3 0 320 0C266.7 0 213.3 0 160 0C106.7 0 53.3 0 26.7 0L0 0Z" fill="#BB004B" stroke-linecap="round" stroke-linejoin="miter"></path></svg>