<svg id="visual" viewBox="0 0 900 600" width="900" height="600" xmlns="http://www.w3.org/2000/svg" xmlns:xlink="http://www.w3.org/1999/xlink" version="1.1"><rect x="0" y="0" width="900" height="600" fill="#ffccd3"></rect><path d="M0 516L37.5 506.7C75 497.3 150 478.7 225 485C300 491.3 375 522.7 450 506C525 489.3 600 424.7 675 400.5C750 376.3 825 392.7 862.5 400.8L900 409L900 601L862.5 601C825 601 750 601 675 601C600 601 525 601 450 601C375 601 300 601 225 601C150 601 75 601 37.5 601L0 601Z" fill="#a50036" stroke-linecap="round" stroke-linejoin="miter"></path></svg>